<?xml version="1.0" encoding="UTF-8"?>
<!DOCTYPE svg PUBLIC "-//W3C//DTD SVG 1.1//EN" "http://www.w3.org/Graphics/SVG/1.1/DTD/svg11.dtd">
<!-- Creator: CorelDRAW 2018 (64-Bit) -->
<svg xmlns="http://www.w3.org/2000/svg" xml:space="preserve" width="68px" height="50px" version="1.1" style="shape-rendering:geometricPrecision; text-rendering:geometricPrecision; image-rendering:optimizeQuality; fill-rule:evenodd; clip-rule:evenodd"
viewBox="0 0 208.21 153.87"
 xmlns:xlink="http://www.w3.org/1999/xlink">
 <defs>
  <style type="text/css">
   <![CDATA[
    .fil0 {fill:#2B2A29}
   ]]>
  </style>
 </defs>
 <g id="Layer_x0020_1">
  <metadata id="CorelCorpID_0Corel-Layer"/>
  <path class="fil0" d="M168.49 153.87c7.11,0 9.13,-3.25 13.34,-7.58 3.07,-3.16 6.55,-7 9.7,-10.22 1.49,-1.53 3.25,-3.49 4.79,-5.07 1.74,-1.78 8.45,-8.65 9.57,-10.34 2.88,-4.33 2.6,-8.54 1.68,-13.33l-2.3 -13.56c-0.96,-6.01 -2.27,-12.12 -3.1,-18.17 -0.37,-2.66 -2.54,-16.27 -3.28,-17.85 -2.86,-6.14 -9.98,-4.71 -16.31,-4.35 -3.32,0.2 -6.86,0.26 -10.17,0.32l-20.6 0.59c-4.08,0.07 -5.96,0.31 -9.49,1.22 -2.71,0.69 -5.36,1.82 -7.46,3.08 -2.23,1.35 -4.55,2.47 -6.85,3.72l-20.63 11.21c-1.94,1.03 -5.27,2.62 -6.56,3.99 -3.83,4.05 -2.12,8.05 -0.84,12.08l14.01 44.37c1.12,3.5 1.43,4.62 3.69,6.89 2.12,2.13 3.62,2.74 7.03,3.54 2.93,0.7 5.78,1.25 8.81,1.94 5.67,1.29 11.75,2.46 17.4,3.86 2.89,0.72 15.48,3.67 17.57,3.66zm-21.88 -96.29c-2.54,0.44 -4.54,0.85 -6.4,1.96 -0.8,0.48 -2.08,1.64 -0.83,2.43 2.74,1.72 14.64,-2.18 11.15,-4.21 -0.93,-0.54 -2.82,-0.37 -3.92,-0.18zm28.66 -0.64c-2.74,0.38 -5.15,0.78 -7.2,2.05 -0.91,0.57 -2.09,1.87 -0.66,2.68 0.94,0.53 2.83,0.51 4.06,0.36 2.54,-0.32 5.22,-0.93 7.07,-2.1 2.73,-1.71 1.34,-3.64 -3.27,-2.99zm-50.04 12.94c-10.79,1.33 -11.55,6.52 -5.49,5.61 10.94,-1.66 11.7,-6.39 5.49,-5.61zm28.4 0.49c-3.15,0.45 -5.47,0.99 -7.66,2.43 -2.61,1.73 -1.54,4.13 3.85,3.36 2.74,-0.39 5.48,-1.18 7.59,-2.47 0.95,-0.58 2.19,-1.99 0.76,-2.94 -1.05,-0.7 -3.21,-0.57 -4.54,-0.38zm-68.71 -10.33c-4.15,1.8 -8.68,14.72 -3.33,13.07 2.38,-0.72 5.31,-6.79 5.75,-10.32 0.21,-1.67 -0.39,-3.63 -2.42,-2.75zm113.4 43.64c-4.67,1.72 -4.37,14.2 0.55,12.66 2.03,-0.63 3.12,-4.28 3.19,-6.7 0.04,-1.61 -0.14,-2.98 -0.71,-4.27 -0.5,-1.11 -1.59,-2.22 -3.03,-1.69zm-3.44 -16.2c-4.86,2.27 -3.54,14.83 1.22,12.81 2.99,-1.26 3.91,-8.15 2.11,-11.37 -0.61,-1.09 -1.8,-2.16 -3.33,-1.44zm-3.22 -17.18c-5.11,2.41 -3.48,15.08 1.32,13.25 3.21,-1.22 3.95,-8.42 2.02,-11.67 -0.56,-0.94 -1.83,-2.29 -3.34,-1.58zm-69.97 54.27c-5.61,2.05 1.25,12.86 6.28,11.27 3.14,-0.98 2.12,-5.14 0.67,-7.48 -1.04,-1.66 -4.18,-4.8 -6.95,-3.79zm-42.32 -107.17c-5.15,0.89 -3.63,4.35 -1.56,5.7 2.11,1.36 5.75,2.45 8.95,2.03 3.84,-0.51 4.56,-3.56 1.54,-5.72 -1.96,-1.4 -5.96,-2.53 -8.93,-2.01zm100.47 103.88c-5.16,1.47 -5.56,14.95 0.19,13.7 2.26,-0.49 3.84,-4.3 4.01,-6.95 0.21,-3.1 -0.77,-7.73 -4.2,-6.75zm-151.35 -105.74c-1.83,0.3 -3.06,0.54 -3.94,1.72 -1.19,1.59 -0.14,3.2 0.91,4.07 1.98,1.62 5.67,2.46 9.25,2.11 3.55,-0.34 6.08,-3.16 2.94,-5.81 -1.9,-1.6 -5.95,-2.63 -9.16,-2.09zm143.38 96.3c0.01,3.06 1.6,7.49 4.99,6.01 2.19,-0.96 3.6,-4.56 3.6,-7.71 -0.02,-9.6 -8.6,-7.75 -8.59,1.7zm-59.49 -20.6c-6.21,1.65 -0.18,13.88 5.62,12.33 3.37,-0.91 2.61,-5.65 1.21,-7.99 -1.09,-1.82 -3.99,-5.08 -6.83,-4.34zm18.2 18.91c-5.98,2.59 1.17,13.95 6.78,11.92 3.09,-1.12 2.46,-5.32 0.71,-8.07 -1.1,-1.74 -4.43,-5.17 -7.49,-3.85zm41.15 -24.56c-5.76,1.7 -5.09,16.06 0.93,14.47 2.7,-0.71 3.92,-4.71 3.91,-7.79 0,-3.03 -1.48,-7.67 -4.84,-6.68zm-21.65 43.73c-6.7,2.25 0.81,13.7 6.56,12.06 3.75,-1.07 2.67,-5.67 1.09,-8.06 -1.08,-1.64 -4.53,-5.05 -7.65,-4zm-8.9 -35.79c-7.01,2.02 -0.27,15.22 6.39,13.07 3.51,-1.13 3.21,-5.51 1.58,-8.45 -1.17,-2.11 -4.48,-5.63 -7.97,-4.62zm-98.62 -9.79c-8.22,1.78 -2.07,14.43 5.23,13.43 1.68,-0.23 3.04,-1.45 3.56,-3.08 1.53,-4.77 -4.41,-11.3 -8.79,-10.35zm-13.78 -23.67c-7.66,2.12 -1.54,15.42 5.77,13.64 3.78,-0.92 4.23,-5.58 2.39,-8.88 -1.22,-2.18 -4.52,-5.76 -8.16,-4.76zm-13.57 -24.1c-3.85,0.83 -4.31,5.56 -2.67,8.99 1.13,2.4 4.31,5.87 8.08,4.97 7.37,-1.76 2.3,-15.62 -5.41,-13.96zm54.4 63.54l-0.96 0.84c-1.38,1.41 -5.95,6.61 -7.03,6.85 -0.17,-1.73 0.79,-5.76 1.24,-7.36 0.56,-2 1.18,-5.18 1.52,-7.24 0.35,-2.03 3.32,-13.3 2.97,-14.36 0.67,-0.56 1.98,-7.91 2.16,-8.7 0.67,-3.03 1.25,-6.03 1.99,-8.92 1.27,-4.97 4.43,-10.98 7.5,-14.28 1.18,-1.27 23.51,-18.83 24.32,-19.14 0.13,3.26 -1.61,7.71 -2.36,10.82 -0.81,3.34 -1.88,7.13 -2.89,10.36 -1.05,3.36 -1.88,7.13 -2.87,10.41 -2.23,7.4 -2.92,12.92 -6.74,19.66 -1.9,3.36 -3.65,4.94 -5.92,7.36 -1.59,1.68 -12.63,12.94 -12.93,13.7zm-5.08 -22.23c-1.38,7.05 -3.38,15.43 -4.94,22.71 -0.85,3.95 -1.14,7.78 -5.99,7.79 -3.32,0 -7.42,-2.82 -9.82,-4.17 -5.81,-3.27 -11.59,-6.52 -17.58,-9.82 -1.61,-0.89 -16.61,-9.19 -17.85,-10.08 -7.77,-5.57 -6.66,-12.46 -5.9,-20.67 0.39,-4.12 0.68,-8.74 0.91,-12.82 0.26,-4.44 0.68,-8.65 0.88,-13.12 0.17,-3.9 0.11,-9.24 2.23,-11.54 3.09,-3.35 7.22,-0.77 10.28,0.56 2.16,0.94 18.55,8.53 19.28,8.54 0.15,0.16 0.07,0.11 0.31,0.27l6.31 2.89c4.44,2 16.75,7.07 19.89,9.58 2.99,2.39 6.73,8.19 5.5,13.69l-2.64 11.99c-0.29,1.38 -0.76,2.98 -0.87,4.2zm-26.37 -44.94l-18.94 -8.71c-1.76,-0.83 -8.3,-3.2 -8.18,-5.59 0.07,-1.41 2.75,-2.35 4.05,-2.94 1.44,-0.66 3.11,-1.45 4.64,-2.16 6.47,-3 12.49,-5.79 18.97,-8.78 4.33,-2 5.34,-2.62 11.16,-1.99 5.43,0.58 9.05,3.1 10.58,3.17l3.51 1.51c1.06,0.42 2.35,0.94 3.52,1.39l20.93 8.19c3.66,1.5 11,3.73 12.84,6.55 0.93,1.43 -0.64,2.03 -1.51,2.72l-19 15.05c-2.12,1.68 -2.95,2.8 -6.23,3.51 -2.43,0.53 -6.75,0.31 -9.09,-0.24 -6.49,-1.51 -24.66,-11.15 -27.25,-11.68zm21.39 -28.94c-1.67,-0.8 -3.68,-1.44 -5.48,-2.19 -2.05,-0.86 -4.17,-1.27 -6.77,-1.2 -5.14,0.14 -8.15,2.23 -12.02,3.96 -7.32,3.25 -14.61,6.79 -21.89,10.11 -4.43,2.02 -6.52,2.83 -8.79,7.21 -1.75,3.39 -1.83,16.37 -2.35,21.71 -0.24,2.42 -0.28,4.89 -0.57,7.34 -0.59,4.89 -0.6,10.04 -1.06,14.99 -0.21,2.26 -0.37,4.89 -0.54,7.21 -0.23,2.93 0.01,4.51 1.11,6.77 1.91,3.96 4.87,5.06 8.76,7.23 6.94,3.88 13.75,7.73 20.5,11.51 7.14,3.99 13.74,7.65 20.5,11.5 2.31,1.32 3.02,1.8 6.39,1.69 4.12,-0.13 6.65,-3.56 9.47,-6.6 0.36,-0.39 3.64,-3.66 3.76,-4.11l2.81 -2.77c0.9,-0.94 1.87,-1.96 2.75,-2.87l10.81 -11.33c1.69,-1.87 3.25,-4.31 4.46,-6.78 2.03,-4.13 3.93,-12.28 5.22,-16.86l7.21 -26.22c1.58,-5.67 4.04,-11.38 -4.19,-14.56 -7.81,-3.02 -16.39,-6.6 -23.95,-9.44 -1.69,-0.63 -15.11,-6.08 -16.14,-6.3zm50.38 74.86c8.21,0.08 16.75,0.73 24.85,1.04 9.24,0.35 15.2,1.08 23.27,-1.9 3.68,-1.35 5.48,-2.64 8.34,-4.61l15.35 -10.52c1.4,-0.94 6.82,-4.84 7.81,-5.21 0.48,-0.67 1.67,-0.95 2.16,-1.74l-2.96 -0.51c-1.08,0 -2.31,0.02 -3.38,0.08 -2.15,0.12 -4.56,0.06 -6.78,0.18 -4.41,0.27 -8.98,0.27 -13.51,0.42 -4.42,0.14 -8.86,0.36 -13.27,0.4 -4.45,0.04 -8.24,0.96 -11.89,2.19 -3.85,1.3 -22.29,11.73 -27.26,14.44l-7.8 4.3c-0.46,0.31 -0.73,0.41 -0.9,0.98 0.88,0.45 4.72,0.45 5.97,0.46zm82.42 -19.61c-0.5,0.7 -6.6,4.74 -7.29,5.25l-14.66 10.19c-2.21,1.54 -5.7,3.67 -6.97,5.29 -1.66,2.13 -3.01,5.78 -3.23,9.13 -0.27,4.33 0.63,7.15 1.52,10.9 0.47,1.99 4.61,18.55 4.78,20.1 1.22,5.43 3.06,11.9 4.25,17.27 0.52,2.32 1.35,6.73 2.22,8.72 1.44,3.27 3.55,4.09 6.25,1.25 3.69,-3.88 7.09,-7.7 10.55,-11.24 3.65,-3.74 6.92,-7.52 10.55,-11.24 1.87,-1.92 3.58,-3.43 4.66,-6.25 2.2,-5.73 1.23,-8.99 0.44,-14.16 -0.22,-1.42 -0.5,-3.2 -0.8,-4.71 -1.5,-7.61 -5.2,-32.19 -6.64,-36.85 -0.57,-1.86 -2.33,-5.62 -4.82,-4.07 -0.52,0.32 -0.31,0.33 -0.81,0.42zm-28.41 62.96c-0.56,-0.65 -2.16,-8.45 -2.34,-9.21 -0.67,-2.88 -1.45,-6.24 -2.18,-9.16 -1.93,-7.56 -1.81,-11.33 -6.62,-16.22 -5.32,-5.4 -10.56,-4.16 -18.35,-4.52l-19.24 -0.8c-0.19,-0.01 -2.34,-0.01 -2.41,-0.19 -0.02,-0.04 -0.08,-0.02 -0.11,-0.05 -3.98,0.74 -15.02,-4.14 -10.35,10.24 3.75,11.56 7.29,23.63 11.12,35.15 0.94,2.84 1.6,6.01 3.07,8.55 3.93,6.79 7.79,7.33 14.26,8.72 3.2,0.69 6.23,1.39 9.41,2.11 6.42,1.46 12.65,2.74 19.04,4.16 2.96,0.67 7.09,2.11 9.14,-0.53 1.88,-2.42 0.49,-6.57 -0.21,-9.44 -0.51,-2.14 -4.39,-17.96 -4.23,-18.81z"/>
 </g>
</svg>
